<?xml version="1.0" standalone="no"?>
<!DOCTYPE svg PUBLIC "-//W3C//DTD SVG 20010904//EN"
 "http://www.w3.org/TR/2001/REC-SVG-20010904/DTD/svg10.dtd">
<svg version="1.0" xmlns="http://www.w3.org/2000/svg"
 width="117.000000pt" height="117.000000pt" viewBox="0 0 117.000000 117.000000"
 preserveAspectRatio="xMidYMid meet">
<metadata>
Created by potrace 1.16, written by Peter Selinger 2001-2019
</metadata>
<g transform="translate(0.000000,117.000000) scale(0.100000,-0.100000)"
fill="#DB3B60" stroke="white" stroke-width="20" stroke-opacity="0.8">
<path d="M440 960 c0 -99 -1 -180 -2 -180 -2 0 -79 25 -173 55 -93 30 -173 51
-176 47 -10 -10 -83 -251 -78 -256 2 -2 76 -29 164 -61 88 -31 163 -59 167
-61 4 -3 -41 -70 -99 -150 -58 -80 -102 -149 -97 -153 7 -6 113 -87 201 -153
8 -6 45 35 118 132 59 77 111 140 115 140 4 0 54 -63 111 -140 57 -76 109
-139 115 -140 9 0 187 123 218 150 4 5 -39 75 -97 157 -58 81 -102 151 -99
154 4 3 77 30 162 59 85 29 158 55 162 59 8 7 -69 261 -78 261 -3 0 -74 -21
-157 -46 -84 -25 -160 -47 -169 -50 -17 -5 -18 8 -18 175 l0 181 -145 0 -145
0 0 -180z"/>
</g>
</svg>
