<svg width="195" height="37" viewBox="0 0 195 37" fill="none" xmlns="http://www.w3.org/2000/svg">
<path d="M42.2923 34.751L1.37625 0.5H189C192.038 0.5 194.5 2.96243 194.5 6V36.5H47.1065C45.3462 36.5 43.642 35.8809 42.2923 34.751Z" fill="#ffffffe0" stroke="#00000055"/>
<path d="M84 23.5V12" stroke="#ED225D" stroke-width="3"/>
<path d="M79.5 23.5V15" stroke="#ED225D" stroke-width="3"/>
<path d="M75 23.5V18" stroke="#ED225D" stroke-width="3"/>
<path d="M93.816 22.656L95.748 17.064L94.992 16.992V16.02H97.74L100.188 22.944H100.2L100.884 22.98V24H97.788V23.028L98.244 22.992C98.38 22.976 98.472 22.944 98.52 22.896C98.568 22.848 98.572 22.76 98.532 22.632L98.28 21.888H95.472L95.112 22.944L95.832 22.98V24H93.06V23.028L93.456 22.992C93.624 22.976 93.744 22.864 93.816 22.656ZM96.876 17.364L95.76 20.784H97.992L96.912 17.364H96.876ZM104.713 17.784C105.057 17.784 105.385 17.832 105.697 17.928V16.716C105.697 16.54 105.593 16.444 105.385 16.428L104.869 16.392V15.444H107.101V22.74C107.109 22.924 107.209 23.016 107.401 23.016L107.821 23.04V24H105.877V23.292L105.841 23.28C105.481 23.864 104.937 24.156 104.209 24.156C103.297 24.156 102.657 23.852 102.289 23.244C101.953 22.692 101.785 22.016 101.785 21.216C101.785 20.176 102.041 19.344 102.553 18.72C103.073 18.096 103.793 17.784 104.713 17.784ZM105.697 22.128V19.02C105.409 18.892 105.105 18.828 104.785 18.828C104.257 18.828 103.869 19.04 103.621 19.464C103.381 19.888 103.261 20.428 103.261 21.084C103.261 22.428 103.693 23.1 104.557 23.1C104.885 23.1 105.157 23.008 105.373 22.824C105.589 22.632 105.697 22.4 105.697 22.128ZM112.53 17.964H115.062V18.9L114.69 18.924C114.53 18.94 114.422 19.036 114.366 19.212L112.818 24H110.982L109.302 19.224C109.262 19.112 109.218 19.036 109.17 18.996C109.13 18.956 109.058 18.932 108.954 18.924L108.606 18.9V17.964H111.426V18.924L110.694 18.96L111.93 22.908H111.954L113.154 18.96L112.53 18.924V17.964ZM121.321 18.204V22.668C121.321 22.796 121.341 22.884 121.381 22.932C121.429 22.98 121.509 23.008 121.621 23.016L122.005 23.04V24H120.097V23.304L120.061 23.292C119.661 23.868 119.113 24.156 118.417 24.156C117.601 24.156 116.997 23.896 116.605 23.376C116.213 22.856 116.017 22.144 116.017 21.24C116.017 20.152 116.281 19.304 116.809 18.696C117.337 18.088 118.129 17.784 119.185 17.784C119.865 17.784 120.577 17.924 121.321 18.204ZM119.929 22.092V18.984C119.705 18.88 119.397 18.828 119.005 18.828C118.469 18.828 118.081 19.044 117.841 19.476C117.601 19.908 117.481 20.48 117.481 21.192C117.481 22.488 117.897 23.136 118.729 23.136C119.081 23.136 119.369 23.032 119.593 22.824C119.817 22.608 119.929 22.364 119.929 22.092ZM123.03 18.924V17.964H125.058V18.744C125.266 18.448 125.542 18.216 125.886 18.048C126.23 17.872 126.602 17.784 127.002 17.784C127.61 17.784 128.078 17.96 128.406 18.312C128.742 18.656 128.91 19.176 128.91 19.872V23.004L129.594 23.04V24H126.738V23.088L127.134 23.052C127.254 23.036 127.342 23.004 127.398 22.956C127.454 22.9 127.482 22.8 127.482 22.656V20.184C127.482 19.744 127.414 19.42 127.278 19.212C127.142 18.996 126.882 18.888 126.498 18.888C126.122 18.888 125.822 19.008 125.598 19.248C125.374 19.488 125.262 19.772 125.262 20.1V23.004L125.946 23.04V24H123.09V23.088L123.486 23.052C123.606 23.036 123.694 23.004 123.75 22.956C123.806 22.9 123.834 22.8 123.834 22.656V19.332C123.834 19.092 123.734 18.968 123.534 18.96L123.03 18.924ZM132.109 20.916C132.109 21.596 132.237 22.124 132.493 22.5C132.749 22.876 133.117 23.064 133.597 23.064C134.085 23.064 134.565 22.892 135.037 22.548L135.553 23.472C134.985 23.936 134.273 24.168 133.417 24.168C132.561 24.168 131.885 23.9 131.389 23.364C130.901 22.82 130.657 22.02 130.657 20.964C130.657 19.908 130.937 19.116 131.497 18.588C132.065 18.052 132.701 17.784 133.405 17.784C134.117 17.784 134.777 17.948 135.385 18.276V19.836L134.281 19.92V19.344C134.281 19.128 134.201 18.996 134.041 18.948C133.889 18.892 133.729 18.864 133.561 18.864C132.593 18.864 132.109 19.548 132.109 20.916ZM139.677 17.784C140.277 17.784 140.753 17.932 141.105 18.228C141.457 18.516 141.633 18.924 141.633 19.452C141.633 19.804 141.557 20.116 141.405 20.388C141.253 20.652 141.065 20.86 140.841 21.012C140.617 21.164 140.345 21.288 140.025 21.384C139.489 21.544 138.885 21.624 138.213 21.624C138.237 22.048 138.369 22.392 138.609 22.656C138.849 22.912 139.217 23.04 139.713 23.04C140.209 23.04 140.705 22.864 141.201 22.512L141.657 23.484C141.497 23.628 141.225 23.776 140.841 23.928C140.465 24.08 140.033 24.156 139.545 24.156C138.569 24.156 137.853 23.888 137.397 23.352C136.941 22.808 136.713 22.064 136.713 21.12C136.713 20.176 136.973 19.384 137.493 18.744C138.013 18.104 138.741 17.784 139.677 17.784ZM139.125 20.532C139.421 20.476 139.693 20.36 139.941 20.184C140.189 20 140.313 19.784 140.313 19.536C140.313 19.048 140.073 18.804 139.593 18.804C139.145 18.804 138.801 18.984 138.561 19.344C138.321 19.696 138.189 20.12 138.165 20.616C138.517 20.608 138.837 20.58 139.125 20.532ZM145.85 17.784C146.194 17.784 146.522 17.832 146.834 17.928V16.716C146.834 16.54 146.73 16.444 146.522 16.428L146.006 16.392V15.444H148.238V22.74C148.246 22.924 148.346 23.016 148.538 23.016L148.958 23.04V24H147.014V23.292L146.978 23.28C146.618 23.864 146.074 24.156 145.346 24.156C144.434 24.156 143.794 23.852 143.426 23.244C143.09 22.692 142.922 22.016 142.922 21.216C142.922 20.176 143.178 19.344 143.69 18.72C144.21 18.096 144.93 17.784 145.85 17.784ZM146.834 22.128V19.02C146.546 18.892 146.242 18.828 145.922 18.828C145.394 18.828 145.006 19.04 144.758 19.464C144.518 19.888 144.398 20.428 144.398 21.084C144.398 22.428 144.83 23.1 145.694 23.1C146.022 23.1 146.294 23.008 146.51 22.824C146.726 22.632 146.834 22.4 146.834 22.128Z" fill="#7A7A7A"/>
</svg>
