<svg width="195" height="37" viewBox="0 0 195 37" fill="none" xmlns="http://www.w3.org/2000/svg">
<path d="M42.2923 34.751L1.37625 0.5H189C192.038 0.5 194.5 2.96243 194.5 6V36.5H47.1065C45.3462 36.5 43.642 35.8809 42.2923 34.751Z" fill="#ffffffe0" stroke="#00000055"/>
<path d="M84 23.5V12" stroke="#7A7A7A" stroke-width="3"/>
<path d="M79.5 23.5V15" stroke="#7A7A7A" stroke-width="3"/>
<path d="M75 23.5V18" stroke="#ED225D" stroke-width="3"/>
<path d="M93.468 16.02H96.852C98.58 16.02 99.444 16.688 99.444 18.024C99.444 18.76 99.076 19.32 98.34 19.704C98.812 19.824 99.18 20.044 99.444 20.364C99.716 20.684 99.852 21.1 99.852 21.612C99.852 22.388 99.588 22.98 99.06 23.388C98.54 23.796 97.78 24 96.78 24H93.408V23.028L93.804 22.992C94.036 22.968 94.152 22.856 94.152 22.656V17.076L93.468 17.04V16.02ZM95.616 20.364V22.872H96.744C97.784 22.872 98.304 22.448 98.304 21.6C98.304 21.2 98.172 20.896 97.908 20.688C97.652 20.472 97.284 20.364 96.804 20.364H95.616ZM95.616 17.124V19.296H96.504C97 19.296 97.364 19.196 97.596 18.996C97.836 18.788 97.956 18.5 97.956 18.132C97.956 17.764 97.836 17.504 97.596 17.352C97.364 17.2 97.028 17.124 96.588 17.124H95.616ZM103.987 17.784C104.587 17.784 105.063 17.932 105.415 18.228C105.767 18.516 105.943 18.924 105.943 19.452C105.943 19.804 105.867 20.116 105.715 20.388C105.563 20.652 105.375 20.86 105.151 21.012C104.927 21.164 104.655 21.288 104.335 21.384C103.799 21.544 103.195 21.624 102.523 21.624C102.547 22.048 102.679 22.392 102.919 22.656C103.159 22.912 103.527 23.04 104.023 23.04C104.519 23.04 105.015 22.864 105.511 22.512L105.967 23.484C105.807 23.628 105.535 23.776 105.151 23.928C104.775 24.08 104.343 24.156 103.855 24.156C102.879 24.156 102.163 23.888 101.707 23.352C101.251 22.808 101.023 22.064 101.023 21.12C101.023 20.176 101.283 19.384 101.803 18.744C102.323 18.104 103.051 17.784 103.987 17.784ZM103.435 20.532C103.731 20.476 104.003 20.36 104.251 20.184C104.499 20 104.623 19.784 104.623 19.536C104.623 19.048 104.383 18.804 103.903 18.804C103.455 18.804 103.111 18.984 102.871 19.344C102.631 19.696 102.499 20.12 102.475 20.616C102.827 20.608 103.147 20.58 103.435 20.532ZM112.487 23.988C112.415 24.876 112.159 25.528 111.719 25.944C111.279 26.36 110.591 26.568 109.655 26.568C108.719 26.568 107.987 26.436 107.459 26.172V24.504L108.599 24.408V24.984C108.599 25.2 108.699 25.344 108.899 25.416C109.099 25.496 109.375 25.536 109.727 25.536C110.239 25.536 110.599 25.38 110.807 25.068C111.015 24.764 111.119 24.332 111.119 23.772V23.112C110.735 23.56 110.203 23.784 109.523 23.784C109.107 23.784 108.739 23.704 108.419 23.544C108.107 23.384 107.863 23.168 107.687 22.896C107.343 22.352 107.171 21.712 107.171 20.976C107.171 19.928 107.455 19.136 108.023 18.6C108.591 18.056 109.347 17.784 110.291 17.784C111.075 17.784 111.815 17.932 112.511 18.228V22.68C112.511 23.36 112.503 23.796 112.487 23.988ZM111.119 21.552V18.972C110.839 18.876 110.519 18.828 110.159 18.828C109.671 18.828 109.295 19.008 109.031 19.368C108.775 19.728 108.647 20.216 108.647 20.832C108.647 22.096 109.063 22.728 109.895 22.728C110.239 22.728 110.527 22.624 110.759 22.416C110.999 22.2 111.119 21.912 111.119 21.552ZM116.207 17.964V23.004L116.891 23.04V24H114.035V23.088L114.431 23.052C114.663 23.028 114.779 22.9 114.779 22.668V19.332C114.779 19.196 114.755 19.104 114.707 19.056C114.667 19.008 114.591 18.984 114.479 18.984L114.059 18.96V17.964H116.207ZM114.695 16.932C114.527 16.764 114.443 16.552 114.443 16.296C114.443 16.04 114.527 15.828 114.695 15.66C114.863 15.484 115.083 15.396 115.355 15.396C115.627 15.396 115.847 15.484 116.015 15.66C116.191 15.828 116.279 16.04 116.279 16.296C116.279 16.552 116.191 16.764 116.015 16.932C115.847 17.092 115.627 17.172 115.355 17.172C115.083 17.172 114.863 17.092 114.695 16.932ZM117.873 18.924V17.964H119.901V18.744C120.109 18.448 120.385 18.216 120.729 18.048C121.073 17.872 121.445 17.784 121.845 17.784C122.453 17.784 122.921 17.96 123.249 18.312C123.585 18.656 123.753 19.176 123.753 19.872V23.004L124.437 23.04V24H121.581V23.088L121.977 23.052C122.097 23.036 122.185 23.004 122.241 22.956C122.297 22.9 122.325 22.8 122.325 22.656V20.184C122.325 19.744 122.257 19.42 122.121 19.212C121.985 18.996 121.725 18.888 121.341 18.888C120.965 18.888 120.665 19.008 120.441 19.248C120.217 19.488 120.105 19.772 120.105 20.1V23.004L120.789 23.04V24H117.933V23.088L118.329 23.052C118.449 23.036 118.537 23.004 118.593 22.956C118.649 22.9 118.677 22.8 118.677 22.656V19.332C118.677 19.092 118.577 18.968 118.377 18.96L117.873 18.924ZM125.429 18.924V17.964H127.457V18.744C127.665 18.448 127.941 18.216 128.285 18.048C128.629 17.872 129.001 17.784 129.401 17.784C130.009 17.784 130.477 17.96 130.805 18.312C131.141 18.656 131.309 19.176 131.309 19.872V23.004L131.993 23.04V24H129.137V23.088L129.533 23.052C129.653 23.036 129.741 23.004 129.797 22.956C129.853 22.9 129.881 22.8 129.881 22.656V20.184C129.881 19.744 129.813 19.42 129.677 19.212C129.541 18.996 129.281 18.888 128.897 18.888C128.521 18.888 128.221 19.008 127.997 19.248C127.773 19.488 127.661 19.772 127.661 20.1V23.004L128.345 23.04V24H125.489V23.088L125.885 23.052C126.005 23.036 126.093 23.004 126.149 22.956C126.205 22.9 126.233 22.8 126.233 22.656V19.332C126.233 19.092 126.133 18.968 125.933 18.96L125.429 18.924ZM136.068 17.784C136.668 17.784 137.144 17.932 137.496 18.228C137.848 18.516 138.024 18.924 138.024 19.452C138.024 19.804 137.948 20.116 137.796 20.388C137.644 20.652 137.456 20.86 137.232 21.012C137.008 21.164 136.736 21.288 136.416 21.384C135.88 21.544 135.276 21.624 134.604 21.624C134.628 22.048 134.76 22.392 135 22.656C135.24 22.912 135.608 23.04 136.104 23.04C136.6 23.04 137.096 22.864 137.592 22.512L138.048 23.484C137.888 23.628 137.616 23.776 137.232 23.928C136.856 24.08 136.424 24.156 135.936 24.156C134.96 24.156 134.244 23.888 133.788 23.352C133.332 22.808 133.104 22.064 133.104 21.12C133.104 20.176 133.364 19.384 133.884 18.744C134.404 18.104 135.132 17.784 136.068 17.784ZM135.516 20.532C135.812 20.476 136.084 20.36 136.332 20.184C136.58 20 136.704 19.784 136.704 19.536C136.704 19.048 136.464 18.804 135.984 18.804C135.536 18.804 135.192 18.984 134.952 19.344C134.712 19.696 134.58 20.12 134.556 20.616C134.908 20.608 135.228 20.58 135.516 20.532ZM139.973 22.656V19.332C139.973 19.204 139.949 19.116 139.901 19.068C139.861 19.012 139.785 18.98 139.673 18.972L139.169 18.936V17.964H141.197V18.864C141.341 18.552 141.565 18.296 141.869 18.096C142.173 17.888 142.521 17.784 142.913 17.784C143.313 17.784 143.693 17.872 144.053 18.048V19.836L142.937 19.92V19.368C142.937 19.208 142.897 19.108 142.817 19.068C142.729 19.028 142.621 19.008 142.493 19.008C142.173 19.008 141.909 19.124 141.701 19.356C141.501 19.58 141.401 19.868 141.401 20.22V23.004L142.445 23.052V24H139.229V23.088L139.625 23.052C139.745 23.036 139.833 23.004 139.889 22.956C139.945 22.9 139.973 22.8 139.973 22.656Z" fill="#7A7A7A"/>
</svg>
