<svg width="100" height="100" viewBox="0 0 100 100" fill="none" xmlns="http://www.w3.org/2000/svg">
<circle cx="50" cy="50" r="50" fill="#ED225D"/>
<path d="M41.8447 63.7734L54.3367 34.5972C54.7894 33.5395 56.014 33.0492 57.0719 33.5021C58.054 33.9226 58.5469 35.0085 58.2498 36.0084L58.1669 36.2372L45.675 65.4134C45.2222 66.4711 43.9976 66.9613 42.9399 66.5086C41.9577 66.088 41.4648 65.0021 41.7619 64.0021L41.8447 63.7734L54.3367 34.5972L41.8447 63.7734ZM29.7767 48.5273L38.11 40.1941C38.9236 39.3805 40.2427 39.3805 41.0563 40.1941C41.8073 40.9451 41.8651 42.1269 41.2296 42.9441L41.0563 43.1404L34.1961 50.0007L41.0563 56.8607C41.8699 57.6744 41.8699 58.9934 41.0563 59.8071C40.3053 60.558 39.1236 60.6159 38.3063 59.9805L38.11 59.8071L29.7767 51.4738C29.0257 50.7228 28.9679 49.5409 29.6034 48.7238L29.7767 48.5273L38.11 40.1941L29.7767 48.5273ZM58.9417 40.1915C59.6928 39.4405 60.8744 39.3828 61.6917 40.0183L61.888 40.1917L70.223 48.5275C70.9744 49.2788 71.0317 50.4613 70.3955 51.2784L70.2219 51.4746L61.8869 59.7988C61.0728 60.6117 59.7536 60.6109 58.9407 59.7967C58.19 59.0453 58.1332 57.8634 58.7692 57.0467L58.9425 56.8505L65.8028 49.9996L58.9415 43.1378C58.128 42.3242 58.128 41.0051 58.9417 40.1915Z" fill="white"/>
</svg>
