<svg width="100" height="100" viewBox="0 0 100 100" fill="none" xmlns="http://www.w3.org/2000/svg">
<circle cx="50" cy="50" r="50" fill="#ED225D"/>
<path d="M42.3148 36.4606C41.4402 35.9621 40.375 36.6253 40.375 37.6684V62.331C40.375 63.374 41.4402 64.0373 42.3148 63.5388L63.9475 51.2074C64.8612 50.6868 64.8612 49.3127 63.9475 48.7918L42.3148 36.4606ZM37.75 37.6684C37.75 34.5392 40.9457 32.5494 43.5694 34.0451L65.2023 46.3764C67.9429 47.9386 67.9429 52.0607 65.2023 53.6231L43.5694 65.9544C40.9457 67.4499 37.75 65.4602 37.75 62.331V37.6684Z" fill="#F7F3EB"/>
<path d="M42.3148 36.4606C41.4402 35.9621 40.375 36.6253 40.375 37.6684V62.331C40.375 63.374 41.4402 64.0373 42.3148 63.5388L63.9475 51.2074C64.8612 50.6868 64.8612 49.3127 63.9475 48.7918L42.3148 36.4606Z" fill="#F7F3EB"/>
</svg>
