<svg width="195" height="37" viewBox="0 0 195 37" fill="none" xmlns="http://www.w3.org/2000/svg">
<path d="M42.2923 34.751L1.37625 0.5H189C192.038 0.5 194.5 2.96243 194.5 6V36.5H47.1065C45.3462 36.5 43.642 35.8809 42.2923 34.751Z" fill="#ffffffe0" stroke="#00000055"/>
<path d="M84 23.5V12" stroke="#7A7A7A" stroke-width="3"/>
<path d="M79.5 23.5V15" stroke="#ED225D" stroke-width="3"/>
<path d="M75 23.5V18" stroke="#ED225D" stroke-width="3"/>
<path d="M94.128 22.596V17.076L93.444 17.04V16.02H96.348V16.992L95.952 17.028C95.72 17.052 95.604 17.18 95.604 17.412V22.944L96.288 22.98V24H93.384V23.028L93.78 22.992C93.9 22.976 93.988 22.944 94.044 22.896C94.1 22.84 94.128 22.74 94.128 22.596ZM97.3637 18.924V17.964H99.3917V18.744C99.5997 18.448 99.8757 18.216 100.22 18.048C100.564 17.872 100.936 17.784 101.336 17.784C101.944 17.784 102.412 17.96 102.74 18.312C103.076 18.656 103.244 19.176 103.244 19.872V23.004L103.928 23.04V24H101.072V23.088L101.468 23.052C101.588 23.036 101.676 23.004 101.732 22.956C101.788 22.9 101.816 22.8 101.816 22.656V20.184C101.816 19.744 101.748 19.42 101.612 19.212C101.476 18.996 101.216 18.888 100.832 18.888C100.456 18.888 100.156 19.008 99.9317 19.248C99.7077 19.488 99.5957 19.772 99.5957 20.1V23.004L100.28 23.04V24H97.4237V23.088L97.8197 23.052C97.9397 23.036 98.0277 23.004 98.0837 22.956C98.1397 22.9 98.1677 22.8 98.1677 22.656V19.332C98.1677 19.092 98.0677 18.968 97.8677 18.96L97.3637 18.924ZM105.843 16.692H106.623V17.964H108.219L108.099 18.972H106.623V22.128C106.623 22.48 106.687 22.728 106.815 22.872C106.943 23.008 107.139 23.076 107.403 23.076C107.675 23.076 107.947 22.992 108.219 22.824L108.579 23.748C108.179 24.028 107.671 24.168 107.055 24.168C106.695 24.168 106.391 24.12 106.143 24.024C105.895 23.936 105.711 23.836 105.591 23.724C105.471 23.612 105.379 23.448 105.315 23.232C105.251 23.016 105.215 22.848 105.207 22.728C105.199 22.6 105.195 22.416 105.195 22.176V18.972H104.343L104.463 18.096C104.839 18.064 105.123 17.932 105.315 17.7C105.507 17.46 105.683 17.124 105.843 16.692ZM112.406 17.784C113.006 17.784 113.482 17.932 113.834 18.228C114.186 18.516 114.362 18.924 114.362 19.452C114.362 19.804 114.286 20.116 114.134 20.388C113.982 20.652 113.794 20.86 113.57 21.012C113.346 21.164 113.074 21.288 112.754 21.384C112.218 21.544 111.614 21.624 110.942 21.624C110.966 22.048 111.098 22.392 111.338 22.656C111.578 22.912 111.946 23.04 112.442 23.04C112.938 23.04 113.434 22.864 113.93 22.512L114.386 23.484C114.226 23.628 113.954 23.776 113.57 23.928C113.194 24.08 112.762 24.156 112.274 24.156C111.298 24.156 110.582 23.888 110.126 23.352C109.67 22.808 109.442 22.064 109.442 21.12C109.442 20.176 109.702 19.384 110.222 18.744C110.742 18.104 111.47 17.784 112.406 17.784ZM111.854 20.532C112.15 20.476 112.422 20.36 112.67 20.184C112.918 20 113.042 19.784 113.042 19.536C113.042 19.048 112.802 18.804 112.322 18.804C111.874 18.804 111.53 18.984 111.29 19.344C111.05 19.696 110.918 20.12 110.894 20.616C111.246 20.608 111.566 20.58 111.854 20.532ZM116.31 22.656V19.332C116.31 19.204 116.286 19.116 116.238 19.068C116.198 19.012 116.122 18.98 116.01 18.972L115.506 18.936V17.964H117.534V18.864C117.678 18.552 117.902 18.296 118.206 18.096C118.51 17.888 118.858 17.784 119.25 17.784C119.65 17.784 120.03 17.872 120.39 18.048V19.836L119.274 19.92V19.368C119.274 19.208 119.234 19.108 119.154 19.068C119.066 19.028 118.958 19.008 118.83 19.008C118.51 19.008 118.246 19.124 118.038 19.356C117.838 19.58 117.738 19.868 117.738 20.22V23.004L118.782 23.052V24H115.566V23.088L115.962 23.052C116.082 23.036 116.17 23.004 116.226 22.956C116.282 22.9 116.31 22.8 116.31 22.656ZM121.397 18.936V17.964H123.425V18.744C123.873 18.104 124.485 17.784 125.261 17.784C126.045 17.784 126.573 18.104 126.845 18.744C127.293 18.104 127.901 17.784 128.669 17.784C129.245 17.784 129.689 17.96 130.001 18.312C130.313 18.656 130.469 19.176 130.469 19.872V23.004L131.153 23.04V24H128.297V23.088L128.693 23.052C128.813 23.036 128.897 23.004 128.945 22.956C129.001 22.9 129.033 22.804 129.041 22.668V20.184C129.041 19.744 128.989 19.42 128.885 19.212C128.789 18.996 128.557 18.888 128.189 18.888C127.821 18.888 127.537 19 127.337 19.224C127.145 19.448 127.049 19.748 127.049 20.124V23.004L127.709 23.04V24H124.877V23.088L125.273 23.052C125.393 23.036 125.481 23.004 125.537 22.956C125.593 22.9 125.621 22.8 125.621 22.656V20.184C125.621 19.744 125.569 19.42 125.465 19.212C125.369 18.996 125.133 18.888 124.757 18.888C124.389 18.888 124.109 19.004 123.917 19.236C123.725 19.468 123.629 19.756 123.629 20.1V23.004L124.277 23.04V24H121.445V23.088L121.841 23.052C121.961 23.036 122.049 23.004 122.105 22.956C122.161 22.9 122.189 22.8 122.189 22.656H122.201V19.344C122.201 19.208 122.177 19.116 122.129 19.068C122.089 19.012 122.013 18.98 121.901 18.972L121.397 18.936ZM135.236 17.784C135.836 17.784 136.312 17.932 136.664 18.228C137.016 18.516 137.192 18.924 137.192 19.452C137.192 19.804 137.116 20.116 136.964 20.388C136.812 20.652 136.624 20.86 136.4 21.012C136.176 21.164 135.904 21.288 135.584 21.384C135.048 21.544 134.444 21.624 133.772 21.624C133.796 22.048 133.928 22.392 134.168 22.656C134.408 22.912 134.776 23.04 135.272 23.04C135.768 23.04 136.264 22.864 136.76 22.512L137.216 23.484C137.056 23.628 136.784 23.776 136.4 23.928C136.024 24.08 135.592 24.156 135.104 24.156C134.128 24.156 133.412 23.888 132.956 23.352C132.5 22.808 132.272 22.064 132.272 21.12C132.272 20.176 132.532 19.384 133.052 18.744C133.572 18.104 134.3 17.784 135.236 17.784ZM134.684 20.532C134.98 20.476 135.252 20.36 135.5 20.184C135.748 20 135.872 19.784 135.872 19.536C135.872 19.048 135.632 18.804 135.152 18.804C134.704 18.804 134.36 18.984 134.12 19.344C133.88 19.696 133.748 20.12 133.724 20.616C134.076 20.608 134.396 20.58 134.684 20.532ZM141.408 17.784C141.752 17.784 142.08 17.832 142.392 17.928V16.716C142.392 16.54 142.288 16.444 142.08 16.428L141.564 16.392V15.444H143.796V22.74C143.804 22.924 143.904 23.016 144.096 23.016L144.516 23.04V24H142.572V23.292L142.536 23.28C142.176 23.864 141.632 24.156 140.904 24.156C139.992 24.156 139.352 23.852 138.984 23.244C138.648 22.692 138.48 22.016 138.48 21.216C138.48 20.176 138.736 19.344 139.248 18.72C139.768 18.096 140.488 17.784 141.408 17.784ZM142.392 22.128V19.02C142.104 18.892 141.8 18.828 141.48 18.828C140.952 18.828 140.564 19.04 140.316 19.464C140.076 19.888 139.956 20.428 139.956 21.084C139.956 22.428 140.388 23.1 141.252 23.1C141.58 23.1 141.852 23.008 142.068 22.824C142.284 22.632 142.392 22.4 142.392 22.128ZM147.749 17.964V23.004L148.433 23.04V24H145.577V23.088L145.973 23.052C146.205 23.028 146.321 22.9 146.321 22.668V19.332C146.321 19.196 146.297 19.104 146.249 19.056C146.209 19.008 146.133 18.984 146.021 18.984L145.601 18.96V17.964H147.749ZM146.237 16.932C146.069 16.764 145.985 16.552 145.985 16.296C145.985 16.04 146.069 15.828 146.237 15.66C146.405 15.484 146.625 15.396 146.897 15.396C147.169 15.396 147.389 15.484 147.557 15.66C147.733 15.828 147.821 16.04 147.821 16.296C147.821 16.552 147.733 16.764 147.557 16.932C147.389 17.092 147.169 17.172 146.897 17.172C146.625 17.172 146.405 17.092 146.237 16.932ZM154.876 18.204V22.668C154.876 22.796 154.896 22.884 154.936 22.932C154.984 22.98 155.064 23.008 155.176 23.016L155.56 23.04V24H153.652V23.304L153.616 23.292C153.216 23.868 152.668 24.156 151.972 24.156C151.156 24.156 150.552 23.896 150.16 23.376C149.768 22.856 149.572 22.144 149.572 21.24C149.572 20.152 149.836 19.304 150.364 18.696C150.892 18.088 151.684 17.784 152.74 17.784C153.42 17.784 154.132 17.924 154.876 18.204ZM153.484 22.092V18.984C153.26 18.88 152.952 18.828 152.56 18.828C152.024 18.828 151.636 19.044 151.396 19.476C151.156 19.908 151.036 20.48 151.036 21.192C151.036 22.488 151.452 23.136 152.284 23.136C152.636 23.136 152.924 23.032 153.148 22.824C153.372 22.608 153.484 22.364 153.484 22.092ZM157.754 16.692H158.534V17.964H160.13L160.01 18.972H158.534V22.128C158.534 22.48 158.598 22.728 158.726 22.872C158.854 23.008 159.05 23.076 159.314 23.076C159.586 23.076 159.858 22.992 160.13 22.824L160.49 23.748C160.09 24.028 159.582 24.168 158.966 24.168C158.606 24.168 158.302 24.12 158.054 24.024C157.806 23.936 157.622 23.836 157.502 23.724C157.382 23.612 157.29 23.448 157.226 23.232C157.162 23.016 157.126 22.848 157.118 22.728C157.11 22.6 157.106 22.416 157.106 22.176V18.972H156.254L156.374 18.096C156.75 18.064 157.034 17.932 157.226 17.7C157.418 17.46 157.594 17.124 157.754 16.692ZM164.317 17.784C164.917 17.784 165.393 17.932 165.745 18.228C166.097 18.516 166.273 18.924 166.273 19.452C166.273 19.804 166.197 20.116 166.045 20.388C165.893 20.652 165.705 20.86 165.481 21.012C165.257 21.164 164.985 21.288 164.665 21.384C164.129 21.544 163.525 21.624 162.853 21.624C162.877 22.048 163.009 22.392 163.249 22.656C163.489 22.912 163.857 23.04 164.353 23.04C164.849 23.04 165.345 22.864 165.841 22.512L166.297 23.484C166.137 23.628 165.865 23.776 165.481 23.928C165.105 24.08 164.673 24.156 164.185 24.156C163.209 24.156 162.493 23.888 162.037 23.352C161.581 22.808 161.353 22.064 161.353 21.12C161.353 20.176 161.613 19.384 162.133 18.744C162.653 18.104 163.381 17.784 164.317 17.784ZM163.765 20.532C164.061 20.476 164.333 20.36 164.581 20.184C164.829 20 164.953 19.784 164.953 19.536C164.953 19.048 164.713 18.804 164.233 18.804C163.785 18.804 163.441 18.984 163.201 19.344C162.961 19.696 162.829 20.12 162.805 20.616C163.157 20.608 163.477 20.58 163.765 20.532Z" fill="#7A7A7A"/>
</svg>
